<?xml version="1.0" encoding="utf-8"?><svg version="1.1" id="Layer_1" xmlns="http://www.w3.org/2000/svg" xmlns:xlink="http://www.w3.org/1999/xlink" x="0px" y="0px" viewBox="0 0 114.315 122.879" enable-background="new 0 0 114.315 122.879" xml:space="preserve"><g><path fill-rule="evenodd" clip-rule="evenodd" d="M69.882,71.653h35.78c4.761,0,8.653,3.898,8.653,8.653v33.92 c0,4.761-3.898,8.652-8.653,8.652h-35.78c-4.761,0-8.653-3.892-8.653-8.652v-33.92C61.229,75.552,65.121,71.653,69.882,71.653 L69.882,71.653L69.882,71.653z M26.265,78.122c-1.728,0-3.167-1.563-3.167-3.455c0-1.934,1.398-3.455,3.167-3.455h16.636 c1.728,0,3.167,1.563,3.167,3.455c0,1.933-1.399,3.455-3.167,3.455H26.265L26.265,78.122L26.265,78.122z M101.452,59.662H94.5 V8.104c0-0.329-0.124-0.617-0.329-0.822s-0.494-0.329-0.823-0.329H8.064c-0.329,0-0.618,0.124-0.822,0.329 C7.034,7.488,6.911,7.774,6.911,8.104v96.353c0,0.329,0.124,0.616,0.329,0.822c0.206,0.205,0.494,0.329,0.822,0.329h37.11v6.952 c-44.601,0-7.982,0-37.068,0c-2.222,0-4.279-0.906-5.718-2.387C0.905,108.692,0,106.677,0,104.455V8.104 c0-2.222,0.905-4.278,2.386-5.719C3.867,0.905,5.883,0,8.104,0H93.39c2.22,0,4.278,0.905,5.719,2.385 c1.48,1.481,2.385,3.498,2.385,5.719C101.493,47.893,101.452-1.153,101.452,59.662L101.452,59.662z M26.223,33.117 c-1.728,0-3.167-1.564-3.167-3.457c0-1.933,1.399-3.455,3.167-3.455l48.923,0c1.728,0,3.166,1.564,3.166,3.456 c0,1.933-1.396,3.457-3.166,3.457L26.223,33.117L26.223,33.117L26.223,33.117z M26.223,55.62c-1.728,0-3.167-1.564-3.167-3.456 c0-1.933,1.399-3.456,3.167-3.456h48.923c1.728,0,3.166,1.563,3.166,3.456c0,1.933-1.396,3.455-3.166,3.455L26.223,55.62 L26.223,55.62L26.223,55.62z M77.187,100.626c-1.853,0-3.355-1.504-3.355-3.356c0-1.854,1.503-3.356,3.355-3.356 c12.831,0,8.335,0,21.171,0c1.853,0,3.355,1.503,3.355,3.356c0,1.853-1.503,3.356-3.355,3.356 C85.526,100.626,90.022,100.626,77.187,100.626L77.187,100.626L77.187,100.626z"/></g></svg>